HIERARCHY
ROOT Hips
{
	OFFSET 0.000000 0.000000 0.000000
	CHANNELS 6 Xposition Yposition Zposition Xrotation Yrotation Zrotation
	JOINT LeftUpLeg_virtual
	{
		OFFSET 0.000000 0.000000 0.000000
		CHANNELS 3 Xrotation Yrotation Zrotation
		JOINT LeftUpLeg
		{
			OFFSET 13.026900 -6.336304 -1.092800
			CHANNELS 3 Xrotation Yrotation Zrotation
			JOINT LeftLeg
			{
				OFFSET 0.524474 -46.096886 9.782700
				CHANNELS 3 Xrotation Yrotation Zrotation
				JOINT LeftFoot
				{
					OFFSET -0.524474 -53.427422 -12.948200
					CHANNELS 3 Xrotation Yrotation Zrotation
					JOINT LeftToeBase
					{
						OFFSET 0.192200 -14.009700 16.364100
						CHANNELS 3 Xrotation Yrotation Zrotation
						JOINT LeftToe_End
						{
							OFFSET -1.784700 -0.561700 9.474800
							CHANNELS 3 Xrotation Yrotation Zrotation
							End Site
							{
								OFFSET 0 0 0
							}
						}
					}
				}
			}
		}
	}
	JOINT RightUpLeg_virtual
	{
		OFFSET 0.000000 0.000000 0.000000
		CHANNELS 3 Xrotation Yrotation Zrotation
		JOINT RightUpLeg
		{
			OFFSET -12.883000 -6.336304 -1.092800
			CHANNELS 3 Xrotation Yrotation Zrotation
			JOINT RightLeg
			{
				OFFSET -0.524587 -46.096825 9.782800
				CHANNELS 3 Xrotation Yrotation Zrotation
				JOINT RightFoot
				{
					OFFSET 0.524587 -53.427383 -12.948300
					CHANNELS 3 Xrotation Yrotation Zrotation
					JOINT RightToeBase
					{
						OFFSET -0.192200 -14.009700 16.364100
						CHANNELS 3 Xrotation Yrotation Zrotation
						JOINT RightToe_End
						{
							OFFSET 1.784700 -0.561700 9.474800
							CHANNELS 3 Xrotation Yrotation Zrotation
							End Site
							{
								OFFSET 0 0 0
							}
						}
					}
				}
			}
		}
	}
	JOINT Spine_virtual
	{
		OFFSET 0.000000 0.000000 0.000000
		CHANNELS 3 Xrotation Yrotation Zrotation
		JOINT Spine
		{
			OFFSET 0.072000 7.257294 -0.789700
			CHANNELS 3 Xrotation Yrotation Zrotation
			JOINT Spine1
			{
				OFFSET 0.000000 12.508769 -0.658067
				CHANNELS 3 Xrotation Yrotation Zrotation
				JOINT Spine1_split
				{
					OFFSET 0.000000 12.508769 -0.658067
					CHANNELS 3 Xrotation Yrotation Zrotation
					JOINT Spine2
					{
						OFFSET 0.000000 12.508769 -0.658067
						CHANNELS 3 Xrotation Yrotation Zrotation
						JOINT Neck_virtual
						{
							OFFSET 0.000000 0.000000 0.000000
							CHANNELS 3 Xrotation Yrotation Zrotation
							JOINT Neck
							{
								OFFSET 0.000000 14.033295 7.520400
								CHANNELS 3 Xrotation Yrotation Zrotation
								JOINT Head
								{
									OFFSET 0.000000 8.198502 5.703100
									CHANNELS 3 Xrotation Yrotation Zrotation
									JOINT HeadTop_End
									{
										OFFSET 0.000000 17.760803 13.332701
										CHANNELS 3 Xrotation Yrotation Zrotation
										End Site
										{
											OFFSET 0 0 0
										}
									}
								}
							}
						}
						JOINT LeftShoulder_virtual
						{
							OFFSET 0.000000 0.000000 0.000000
							CHANNELS 3 Xrotation Yrotation Zrotation
							JOINT LeftShoulder
							{
								OFFSET 6.292450 5.785301 -0.669000
								CHANNELS 3 Xrotation Yrotation Zrotation
								JOINT LeftShoulder_split
								{
									OFFSET 6.292450 5.785301 -0.669000
									CHANNELS 3 Xrotation Yrotation Zrotation
									JOINT LeftArm
									{
										OFFSET 13.907140 -6.093903 1.965100
										CHANNELS 3 Xrotation Yrotation Zrotation
										JOINT LeftForeArm
										{
											OFFSET 34.140198 0.000000 0.000000
											CHANNELS 3 Xrotation Yrotation Zrotation
											JOINT LeftHand
											{
												OFFSET 40.960209 0.000000 0.000000
												CHANNELS 3 Xrotation Yrotation Zrotation
												End Site
												{
													OFFSET 0 0 0
												}
											}
										}
									}
								}
							}
						}
						JOINT RightShoulder_virtual
						{
							OFFSET 0.000000 0.000000 0.000000
							CHANNELS 3 Xrotation Yrotation Zrotation
							JOINT RightShoulder
							{
								OFFSET -6.292450 5.785301 -0.669000
								CHANNELS 3 Xrotation Yrotation Zrotation
								JOINT RightShoulder_split
								{
									OFFSET -6.292450 5.785301 -0.669000
									CHANNELS 3 Xrotation Yrotation Zrotation
									JOINT RightArm
									{
										OFFSET -13.907140 -6.093903 1.965100
										CHANNELS 3 Xrotation Yrotation Zrotation
										JOINT RightForeArm
										{
											OFFSET -34.140198 0.000000 0.000000
											CHANNELS 3 Xrotation Yrotation Zrotation
											JOINT RightHand
											{
												OFFSET -40.960209 0.000000 0.000000
												CHANNELS 3 Xrotation Yrotation Zrotation
												End Site
												{
													OFFSET 0 0 0
												}
											}
										}
									}
								}
							}
						}
					}
				}
			}
		}
	}
}
MOTION
Frames: 8
Frame Time: 0.03333333
22.256731 100.188614 -23.458706 0.000000 0.000000 0.000000 155.351300 -41.616855 163.225948 -4.200182 31.211772 13.094351 17.084484 17.505927 0.772569 -12.367490 14.273496 -28.159174 -0.831009 -0.309503 0.006060 0.000000 0.000000 0.000000 155.812461 -38.882771 163.070384 -68.637302 14.184319 8.140603 30.162710 -2.794295 -1.933558 16.881931 -0.076959 9.815759 1.709566 1.183112 0.453201 0.000000 0.000000 0.000000 157.352655 -40.871712 163.609054 35.346096 1.637828 10.814340 -9.638466 -2.528532 2.313650 0.748204 1.614437 0.582850 0.000000 0.000000 0.000000 -9.551128 -2.080220 2.151195 -10.178086 -0.511806 -8.700054 -19.749304 -12.612026 7.540156 0.000000 0.000000 0.000000 -10.057290 -1.861622 1.935558 7.012691 -14.869146 25.736873 3.829034 1.450955 1.950356 -69.787232 -2.162213 -45.393584 -1.740655 -60.411876 4.536907 0.000000 0.000000 0.000000 -9.554721 -1.523262 2.335818 5.812487 3.982650 -2.453637 -2.555298 1.057168 2.293630 -0.524376 5.589677 67.971659 14.193409 25.819911 -3.864960 0.000000 0.000000 0.000000 
22.130047 100.558174 -23.583622 0.000000 0.000000 0.000000 155.615847 -41.867584 163.515794 -3.319911 31.035317 12.492757 15.714375 17.825395 0.974315 -11.492957 14.081594 -28.194766 -0.798573 -0.297433 -0.090917 0.000000 0.000000 0.000000 156.042707 -39.200132 163.313989 -68.089398 13.912183 7.876572 29.902227 -2.806549 -1.990468 16.648482 0.110473 9.538814 1.678258 1.175488 0.457804 0.000000 0.000000 0.000000 157.606779 -41.122636 163.881524 35.119381 1.650983 10.801830 -9.578783 -2.540890 2.429922 0.702024 1.691859 0.575402 0.000000 0.000000 0.000000 -9.416854 -2.105949 2.241822 -10.982551 -3.761228 -7.509188 -17.543530 -16.286077 8.377594 0.000000 0.000000 0.000000 -9.946851 -1.900208 2.045278 6.688966 -14.271669 24.902743 3.830004 1.498878 2.282302 -69.632918 -1.559351 -45.625418 -1.632021 -59.879435 4.613253 0.000000 0.000000 0.000000 -9.381108 -1.547595 2.408055 5.688131 3.415313 -2.688250 -2.788299 1.134360 2.249200 -0.365087 6.042358 68.302684 13.924205 25.871961 -3.618750 0.000000 0.000000 0.000000 
22.011927 100.894432 -23.709423 0.000000 0.000000 0.000000 155.869507 -42.089613 163.816828 -2.449673 30.859860 11.838333 14.354310 18.135375 1.193769 -10.611827 13.911418 -28.252960 -0.773238 -0.283873 -0.179489 0.000000 0.000000 0.000000 156.252762 -39.491689 163.557977 -67.578541 13.612330 7.599578 29.675471 -2.800930 -2.049291 16.401145 0.275146 9.286719 1.645078 1.166898 0.467026 0.000000 0.000000 0.000000 157.831888 -41.334700 164.160059 34.918311 1.701580 10.790422 -9.534924 -2.528508 2.502868 0.720491 1.733492 0.554019 0.000000 0.000000 0.000000 -9.283193 -2.112543 2.297382 -11.672049 -6.610101 -6.698939 -15.666224 -19.092578 8.879114 0.000000 0.000000 0.000000 -9.855194 -1.914577 2.119752 6.413135 -13.829865 24.018997 3.860342 1.659713 2.641892 -69.519701 -1.028316 -45.837970 -1.757695 -59.286377 4.430565 0.000000 0.000000 0.000000 -9.227634 -1.558041 2.433257 5.571650 2.871315 -2.857234 -2.982285 1.150039 2.256534 -0.290235 6.481728 68.649514 13.679346 26.013597 -3.382710 0.000000 0.000000 0.000000 
21.899698 101.196846 -23.804386 0.000000 0.000000 0.000000 156.108919 -42.287224 164.132915 -1.603355 30.681070 11.153870 13.043366 18.438237 1.417753 -9.746081 13.767263 -28.311387 -0.753205 -0.269015 -0.260891 0.000000 0.000000 0.000000 156.439732 -39.757773 163.807676 -67.115624 13.264264 7.287721 29.526956 -2.775145 -2.103105 16.131756 0.397701 9.058994 1.638099 1.156169 0.483954 0.000000 0.000000 0.000000 158.027259 -41.519347 164.442528 34.728616 1.778910 10.786337 -9.497423 -2.496464 2.529341 0.765996 1.761849 0.556399 0.000000 0.000000 0.000000 -9.157106 -2.104647 2.314815 -12.266921 -8.961977 -6.284683 -14.160816 -20.936398 9.009518 0.000000 0.000000 0.000000 -9.783372 -1.908073 2.159127 6.177773 -13.479513 23.173143 3.851281 1.839879 2.945211 -69.435170 -0.702257 -46.007540 -2.077569 -58.819854 4.030800 0.000000 0.000000 0.000000 -9.099794 -1.559900 2.411584 5.460842 2.376901 -2.974378 -3.089808 1.165147 2.293639 -0.303337 6.889251 69.024580 13.490883 26.263419 -3.178750 0.000000 0.000000 0.000000 
21.793392 101.462784 -23.847324 0.000000 0.000000 0.000000 156.325244 -42.491334 164.460368 -0.797064 30.496255 10.462524 11.820325 18.733411 1.634296 -8.928916 13.648198 -28.334669 -0.745986 -0.252948 -0.332991 0.000000 0.000000 0.000000 156.605296 -40.003663 164.068657 -66.711318 12.866282 6.927265 29.500649 -2.721046 -2.150713 15.834784 0.467618 8.855391 1.660111 1.143312 0.510626 0.000000 0.000000 0.000000 158.192167 -41.693124 164.721992 34.532053 1.862105 10.798234 -9.459248 -2.454179 2.518839 0.819894 1.794395 0.565689 0.000000 0.000000 0.000000 -9.050439 -2.085232 2.301625 -12.781870 -10.775820 -6.223570 -13.014897 -21.936763 8.844563 0.000000 0.000000 0.000000 -9.726504 -1.884999 2.174529 5.982955 -13.176243 22.444037 3.750430 1.981141 3.121855 -69.341781 -0.623849 -46.103808 -2.569973 -58.544748 3.452723 0.000000 0.000000 0.000000 -9.000132 -1.559145 2.357930 5.358778 1.934171 -3.053312 -3.130874 1.186890 2.323761 -0.371806 7.268759 69.440614 13.356802 26.568685 -3.008055 0.000000 0.000000 0.000000 
21.686989 101.697838 -23.841000 0.000000 0.000000 0.000000 156.518306 -42.729629 164.799747 -0.050178 30.299464 9.790236 10.714249 19.009303 1.838862 -8.179617 13.551600 -28.305171 -0.747766 -0.235956 -0.398747 0.000000 0.000000 0.000000 156.751844 -40.258709 164.343313 -66.359167 12.430873 6.517142 29.615389 -2.638054 -2.192828 15.505535 0.482498 8.673639 1.684546 1.127918 0.547421 0.000000 0.000000 0.000000 158.331107 -41.887119 164.993328 34.327581 1.929695 10.823751 -9.420719 -2.414531 2.487749 0.792303 1.853931 0.584572 0.000000 0.000000 0.000000 -8.967787 -2.066544 2.274783 -13.232108 -12.112840 -6.417820 -12.144385 -22.253759 8.520277 0.000000 0.000000 0.000000 -9.684764 -1.854211 2.180905 5.823054 -12.870925 21.864132 3.596084 2.072763 3.119584 -69.185383 -0.748728 -46.117458 -3.212852 -58.376111 2.726764 0.000000 0.000000 0.000000 -8.920532 -1.562845 2.292694 5.269099 1.554756 -3.112271 -3.146354 1.187105 2.326249 -0.447844 7.616011 69.870984 13.253534 26.833173 -2.858276 0.000000 0.000000 0.000000 
21.596361 101.909241 -23.800434 0.000000 0.000000 0.000000 156.700290 -43.019055 165.161501 0.624257 30.072411 9.169255 9.750538 19.230413 2.025237 -7.503630 13.456576 -28.233441 -0.767519 -0.217150 -0.455721 0.000000 0.000000 0.000000 156.888749 -40.565948 164.648322 -66.042984 11.981226 6.063276 29.867382 -2.528215 -2.232027 15.129236 0.444102 8.505266 1.694468 1.109710 0.593567 0.000000 0.000000 0.000000 158.449952 -42.130977 165.255689 34.126596 1.963023 10.848214 -9.375888 -2.382637 2.450474 0.729800 1.891741 0.600807 0.000000 0.000000 0.000000 -8.924609 -2.049615 2.246966 -13.627926 -13.062511 -6.746354 -11.455671 -22.135340 8.193784 0.000000 0.000000 0.000000 -9.654046 -1.826873 2.180860 5.695600 -12.542048 21.455248 3.406639 2.107298 2.984853 -68.954325 -1.030038 -46.061085 -3.946202 -58.124111 1.924679 0.000000 0.000000 0.000000 -8.848851 -1.570936 2.231791 5.200720 1.252114 -3.156420 -3.207777 1.096659 2.247866 -0.481879 7.936243 70.277626 13.154846 26.989868 -2.714837 0.000000 0.000000 0.000000 
21.523521 102.105667 -23.743809 0.000000 0.000000 0.000000 156.885156 -43.379986 165.545030 1.194378 29.802492 8.644044 8.956386 19.362478 2.185799 -6.897137 13.338562 -28.135352 -0.795470 -0.196621 -0.506462 0.000000 0.000000 0.000000 157.025544 -40.963930 164.978302 -65.743747 11.531504 5.579576 30.233201 -2.401252 -2.270887 14.681811 0.359658 8.333268 1.689786 1.089512 0.646803 0.000000 0.000000 0.000000 158.562254 -42.454171 165.516029 33.946122 1.954456 10.853723 -9.326796 -2.358952 2.414021 0.657932 1.911627 0.567725 0.000000 0.000000 0.000000 -8.915956 -2.036274 2.228090 -13.978944 -13.754418 -7.118690 -10.882340 -21.825422 7.966144 0.000000 0.000000 0.000000 -9.632414 -1.798895 2.181333 5.599851 -12.212061 21.179792 3.240974 2.093872 2.817335 -68.667785 -1.377649 -45.992612 -4.682877 -57.693249 1.131949 0.000000 0.000000 0.000000 -8.777735 -1.577787 2.186671 5.162855 1.039908 -3.179205 -3.340452 0.938959 2.120765 -0.393870 8.233161 70.639251 13.055092 27.040543 -2.581839 0.000000 0.000000 0.000000 
